<?xml version="1.0" encoding="UTF-8"?><svg xmlns="http://www.w3.org/2000/svg" viewBox="0 0 601 768"><defs><style>.cls-1{stroke:#ccc;}.cls-1,.cls-2{fill:none;stroke-linecap:round;stroke-miterlimit:10;stroke-width:9px;}.cls-2{stroke:red;}.cls-3{fill:#ccc;stroke-width:0px;}</style></defs><g id="SRC_bibs"><path class="cls-1" d="m24.18,365.01c3.33-83.87,28.59-160.12,68.4-219.05"/><path class="cls-1" d="m278.3,25.87c-61.85,5.57-118.04,38.13-161.8,88.77"/><path class="cls-1" d="m570.42,403.01c-7.2,181.16-116.71,326.76-254.12,339.14"/><path class="cls-1" d="m278.3,742.15c-137.41-12.38-246.92-157.98-254.12-339.14"/><path class="cls-1" d="m538.34,403.01c-7.12,157.94-102.32,284.78-222.05,297.01"/><path class="cls-1" d="m538.34,365.01c-3.26-72.25-24.94-137.99-58.98-189.23"/><path class="cls-1" d="m278.3,700.02c-119.72-12.23-214.93-139.06-222.05-297.01"/><path class="cls-1" d="m278.3,68c-53.03,5.42-101.26,33.32-139.15,76.45"/><path class="cls-1" d="m115.23,175.78c-34.04,51.24-55.72,116.98-58.98,189.23"/><path class="cls-1" d="m316.3,68c53.03,5.42,101.26,33.32,139.15,76.45"/><path class="cls-1" d="m316.3,111.48c43.95,5.21,83.95,28.32,115.77,63.73"/><path class="cls-1" d="m138.6,206.54c-28.12,43.28-46.13,98.19-49.29,158.47"/><path class="cls-1" d="m505.28,365.01c-3.15-60.28-21.17-115.19-49.29-158.47"/><path class="cls-1" d="m278.3,111.48c-43.95,5.21-83.95,28.32-115.77,63.73"/><path class="cls-1" d="m97.7,365.01c3.12-57.25,20.21-109.41,46.83-150.66"/><path class="cls-1" d="m496.89,365.01c-3.12-57.25-20.21-109.41-46.83-150.66"/><path class="cls-1" d="m278.3,122.51c-41.64,5.15-79.57,27.05-109.84,60.51"/><path class="cls-1" d="m316.3,122.51c41.64,5.15,79.57,27.05,109.84,60.51"/><path class="cls-1" d="m197.56,546.69c22.64,23.94,50.37,39.91,80.74,44.65"/><path class="cls-1" d="m173.64,515.37c-19.3-31.26-31.85-69.98-34.76-112.36"/><path class="cls-1" d="m455.72,365.01c-2.91-42.38-15.47-81.1-34.76-112.36"/><path class="cls-1" d="m455.72,403.01c-2.91,42.38-15.47,81.1-34.76,112.36"/><path class="cls-1" d="m397.03,546.69c-22.64,23.94-50.37,39.91-80.74,44.65"/><path class="cls-1" d="m173.64,252.65c-19.3,31.26-31.85,69.98-34.76,112.36"/><path class="cls-1" d="m428.19,524.88c21.11-33.75,34.78-75.81,37.75-121.87"/><path class="cls-1" d="m128.66,365.01c2.97-46.06,16.64-88.12,37.75-121.87"/><path class="cls-1" d="m465.94,365.01c-2.97-46.06-16.64-88.12-37.75-121.87"/><path class="cls-1" d="m190.34,556.2c24.54,26.3,54.8,43.72,87.96,48.59"/><path class="cls-1" d="m128.66,403.01c2.97,46.06,16.64,88.12,37.75,121.87"/><path class="cls-1" d="m404.26,556.2c-24.54,26.3-54.8,43.72-87.96,48.59"/><path class="cls-1" d="m569.97,365c-3.34-85.42-29.42-162.94-70.45-222.34"/><path class="cls-1" d="m316.25,25.58c65.6,6.04,124.8,42.46,169.53,98.59"/><ellipse class="cls-3" cx="266.34" cy="625.99" rx="12.15" ry="6.79" transform="translate(-171.28 105.13) rotate(-16.99)"/><ellipse class="cls-3" cx="259.35" cy="540.52" rx="8.55" ry="5.25" transform="translate(-146.61 99.36) rotate(-16.99)"/><ellipse class="cls-3" cx="228.35" cy="510.52" rx="5.25" ry="8.55" transform="translate(-301.86 688.43) rotate(-84.45)"/><ellipse class="cls-3" cx="262.35" cy="505.52" rx="5.25" ry="8.55" transform="translate(-266.17 717.76) rotate(-84.45)"/><ellipse class="cls-3" cx="333.35" cy="541.52" rx="8.55" ry="5.25" transform="translate(-80.51 58.73) rotate(-8.99)"/><ellipse class="cls-3" cx="336.35" cy="506.52" rx="5.25" ry="8.55" transform="translate(-270.48 544.55) rotate(-60)"/><ellipse class="cls-3" cx="372.35" cy="514.52" rx="8.55" ry="5.25" transform="translate(-233.66 704.6) rotate(-71.52)"/><path class="cls-3" d="m431.34,340.84c3.75,0,6.79,5.44,6.79,12.15,0,6.71-3.04,12.15-6.79,12.15s-6.79-5.44-6.79-12.15,3.04-12.15,6.79-12.15Z"/><path class="cls-3" d="m167.34,340.84c3.75,0,6.79,5.44,6.79,12.15,0,6.71-3.04,12.15-6.79,12.15s-6.79-5.44-6.79-12.15,3.04-12.15,6.79-12.15Z"/><ellipse class="cls-3" cx="223.34" cy="164.99" rx="12.15" ry="6.79" transform="translate(-54.15 175.21) rotate(-38.56)"/></g><g id="bibs_-_copie_2"><g id="SPOTS"><path id="ANTHO" class="cls-2" d="m428.39,502.3c-2.35,4.48-4.82,8.84-7.43,13.06"/></g></g></svg>