<?xml version="1.0" encoding="UTF-8"?>
<svg id="TESTING" xmlns="http://www.w3.org/2000/svg" viewBox="0 0 601 768">
  <defs>
    <style>
      .cls-1, .cls-2, .cls-3 {
        fill: none;
      }

      .cls-1, .cls-4 {
        stroke-width: 0px;
      }

      .cls-2 {
        stroke: #ccc;
      }

      .cls-2, .cls-3 {
        stroke-linecap: round;
        stroke-miterlimit: 10;
        stroke-width: 9px;
      }

      .cls-3 {
        stroke: red;
      }

      .cls-4 {
        fill: #ccc;
      }
    </style>
  </defs>
  <line class="cls-1" x1="349.51" y1="7.65" x2="346.99" y2="25.65"/>
  <line class="cls-1" x1="245.13" y1="7.65" x2="247.65" y2="25.56"/>
  <line class="cls-1" x1="349.51" y1="7.65" x2="346.99" y2="25.65"/>
  <line class="cls-1" x1="349.51" y1="7.65" x2="346.99" y2="25.65"/>
  <line class="cls-1" x1="245.13" y1="7.65" x2="247.65" y2="25.56"/>
  <line class="cls-1" x1="349.51" y1="7.65" x2="346.99" y2="25.65"/>
  <line class="cls-1" x1="349.51" y1="7.65" x2="346.99" y2="25.65"/>
  <line class="cls-1" x1="245.13" y1="7.65" x2="247.65" y2="25.56"/>
  <line class="cls-1" x1="349.51" y1="7.65" x2="346.99" y2="25.65"/>
  <ellipse class="cls-4" cx="266.34" cy="625.99" rx="12.15" ry="6.79" transform="translate(-171.28 105.13) rotate(-16.99)"/>
  <ellipse class="cls-4" cx="259.35" cy="540.52" rx="8.55" ry="5.25" transform="translate(-146.61 99.36) rotate(-16.99)"/>
  <ellipse class="cls-4" cx="228.35" cy="510.52" rx="5.25" ry="8.55" transform="translate(-301.86 688.43) rotate(-84.45)"/>
  <ellipse class="cls-4" cx="262.35" cy="505.52" rx="5.25" ry="8.55" transform="translate(-266.17 717.76) rotate(-84.45)"/>
  <ellipse class="cls-4" cx="333.35" cy="541.52" rx="8.55" ry="5.25" transform="translate(-80.51 58.73) rotate(-8.99)"/>
  <ellipse class="cls-4" cx="336.35" cy="506.52" rx="5.25" ry="8.55" transform="translate(-270.48 544.55) rotate(-60)"/>
  <ellipse class="cls-4" cx="372.35" cy="514.52" rx="8.55" ry="5.25" transform="translate(-233.66 704.6) rotate(-71.52)"/>
  <path class="cls-4" d="m431.34,340.84c3.75,0,6.79,5.44,6.79,12.15,0,6.71-3.04,12.15-6.79,12.15-3.75,0-6.79-5.44-6.79-12.15s3.04-12.15,6.79-12.15Z"/>
  <path class="cls-4" d="m167.34,340.84c3.75,0,6.79,5.44,6.79,12.15,0,6.71-3.04,12.15-6.79,12.15-3.75,0-6.79-5.44-6.79-12.15s3.04-12.15,6.79-12.15Z"/>
  <ellipse class="cls-4" cx="223.34" cy="164.99" rx="12.15" ry="6.79" transform="translate(-54.15 175.21) rotate(-38.56)"/>
  <path class="cls-2" d="m31.75,297.81c-1.19,6.35-2.26,12.77-3.19,19.26"/>
  <path class="cls-2" d="m26.21,336.25c.65-6.45,1.43-12.85,2.34-19.18"/>
  <path class="cls-2" d="m40.83,259.06c1.86-6.59,3.87-13.09,6.01-19.49"/>
  <path class="cls-2" d="m92.57,145.95c-3.49,5.16-6.85,10.46-10.11,15.88"/>
  <path class="cls-2" d="m53.93,220.05c2.6-6.63,5.35-13.13,8.24-19.52"/>
  <path class="cls-2" d="m71.65,181.09c3.44-6.58,7.05-13,10.81-19.26"/>
  <path class="cls-2" d="m31.75,297.81c1.22-6.52,2.59-12.96,4.08-19.34"/>
  <path class="cls-2" d="m71.65,181.09c-3.31,6.33-6.47,12.82-9.47,19.44"/>
  <path class="cls-2" d="m40.83,259.06c-1.81,6.39-3.47,12.87-5.01,19.42"/>
  <path class="cls-2" d="m53.93,220.05c-2.51,6.4-4.88,12.91-7.09,19.52"/>
  <path class="cls-2" d="m24.67,355.38c-.19,3.2-.36,6.41-.49,9.63"/>
  <path class="cls-2" d="m24.67,355.38c.39-6.42.9-12.8,1.54-19.12"/>
  <path class="cls-2" d="m247.39,31c-8.09,1.96-16.06,4.38-23.88,7.25"/>
  <path class="cls-2" d="m159.07,74.2c-6.33,4.88-12.5,10.08-18.5,15.6"/>
  <path class="cls-2" d="m200.67,48.06c-7.34,3.64-14.52,7.69-21.54,12.11"/>
  <path class="cls-2" d="m278.3,25.87c-2.11.19-4.2.42-6.29.67"/>
  <path class="cls-2" d="m123.68,106.63c5.46-5.89,11.09-11.51,16.89-16.84"/>
  <path class="cls-2" d="m223.51,38.25c-7.76,2.85-15.37,6.12-22.84,9.82"/>
  <path class="cls-2" d="m179.14,60.17c-6.85,4.32-13.55,9-20.07,14.02"/>
  <path class="cls-2" d="m123.68,106.63c-2.43,2.62-4.82,5.28-7.18,8.01"/>
  <path class="cls-2" d="m272,26.54c-8.32,1-16.53,2.5-24.61,4.46"/>
  <path class="cls-2" d="m435.1,694.17c6.35-4.87,12.53-10.08,18.54-15.58"/>
  <path class="cls-2" d="m511.91,606.55c3.77-6.26,7.39-12.69,10.84-19.28"/>
  <path class="cls-2" d="m532.27,567.81c-3.02,6.63-6.18,13.12-9.51,19.46"/>
  <path class="cls-2" d="m547.65,528.71c-2.23,6.62-4.6,13.14-7.12,19.55"/>
  <path class="cls-2" d="m532.27,567.81c2.91-6.39,5.66-12.91,8.27-19.54"/>
  <path class="cls-2" d="m414.98,708.14c6.87-4.3,13.58-8.96,20.12-13.97"/>
  <path class="cls-2" d="m569.93,412.69c-.39,6.44-.91,12.83-1.56,19.16"/>
  <path class="cls-2" d="m566.02,451.07c-.94,6.5-2,12.93-3.2,19.3"/>
  <path class="cls-2" d="m393.4,720.19c7.35-3.62,14.55-7.64,21.58-12.05"/>
  <path class="cls-2" d="m558.72,489.74c-1.54,6.57-3.21,13.06-5.03,19.46"/>
  <path class="cls-2" d="m547.65,528.71c2.15-6.41,4.17-12.92,6.04-19.52"/>
  <path class="cls-2" d="m485.89,643.98c4.75-5.94,9.35-12.1,13.76-18.47"/>
  <path class="cls-2" d="m558.72,489.74c1.5-6.38,2.87-12.84,4.1-19.37"/>
  <path class="cls-2" d="m322,741.55c8.32-.98,16.54-2.45,24.63-4.39"/>
  <path class="cls-2" d="m566.02,451.07c.91-6.35,1.7-12.76,2.35-19.22"/>
  <path class="cls-2" d="m316.3,742.15c1.91-.17,3.81-.38,5.7-.6"/>
  <path class="cls-2" d="m485.89,643.98c-4.94,6.17-10.04,12.11-15.32,17.79"/>
  <path class="cls-2" d="m511.91,606.55c-3.92,6.51-8.02,12.83-12.26,18.96"/>
  <path class="cls-2" d="m370.54,729.96c7.77-2.83,15.39-6.09,22.86-9.78"/>
  <path class="cls-2" d="m346.63,737.16c8.1-1.94,16.07-4.35,23.9-7.2"/>
  <path class="cls-2" d="m570.42,403.01c-.13,3.24-.3,6.46-.49,9.68"/>
  <path class="cls-2" d="m453.63,678.58c5.81-5.33,11.46-10.93,16.93-16.82"/>
  <path class="cls-2" d="m123.68,661.38c5.46,5.89,11.09,11.51,16.89,16.84"/>
  <path class="cls-2" d="m53.94,547.95c2.6,6.63,5.34,13.14,8.23,19.52"/>
  <path class="cls-2" d="m71.65,586.91c3.44,6.58,7.05,13.01,10.81,19.26"/>
  <path class="cls-2" d="m94.68,625.12c4.4,6.37,8.98,12.53,13.72,18.47"/>
  <path class="cls-2" d="m26.22,431.75c.65,6.45,1.43,12.85,2.34,19.18"/>
  <path class="cls-2" d="m53.94,547.95c-2.51-6.4-4.87-12.91-7.09-19.52"/>
  <path class="cls-2" d="m31.74,470.19c1.22,6.52,2.59,12.96,4.08,19.33"/>
  <path class="cls-2" d="m40.83,508.94c1.86,6.59,3.88,13.08,6.02,19.48"/>
  <path class="cls-2" d="m24.67,412.62c-.19-3.19-.36-6.4-.49-9.62"/>
  <path class="cls-2" d="m123.68,661.38c-5.26-5.68-10.36-11.62-15.28-17.79"/>
  <path class="cls-2" d="m94.68,625.12c-4.24-6.13-8.32-12.44-12.22-18.95"/>
  <path class="cls-2" d="m140.56,678.22c6,5.51,12.16,10.72,18.5,15.6"/>
  <path class="cls-2" d="m272,741.48c-8.32-1-16.53-2.5-24.62-4.46"/>
  <path class="cls-2" d="m40.83,508.94c-1.81-6.39-3.47-12.87-5-19.42"/>
  <path class="cls-2" d="m278.3,742.15c-2.11-.19-4.2-.41-6.3-.66"/>
  <path class="cls-2" d="m31.74,470.19c-1.19-6.35-2.25-12.78-3.18-19.26"/>
  <path class="cls-2" d="m71.65,586.91c-3.31-6.34-6.47-12.82-9.47-19.44"/>
  <path class="cls-2" d="m159.06,693.82c6.52,5.02,13.22,9.7,20.08,14.01"/>
  <path class="cls-2" d="m24.67,412.62c.39,6.42.91,12.8,1.55,19.12"/>
  <path class="cls-2" d="m179.13,707.83c7.02,4.42,14.2,8.46,21.54,12.1"/>
  <path class="cls-2" d="m200.67,719.93c7.46,3.7,15.08,6.99,22.83,9.83"/>
  <path class="cls-2" d="m223.51,729.76c7.82,2.87,15.79,5.3,23.88,7.26"/>
  <path class="cls-2" d="m340.82,695.83c-7.15,1.71-14.4,3-21.75,3.86"/>
  <path class="cls-2" d="m401.18,670.23c6.06-3.8,11.99-7.92,17.76-12.35"/>
  <path class="cls-2" d="m512.05,529.05c2.22-5.66,4.32-11.42,6.28-17.27"/>
  <path class="cls-2" d="m504.75,546.31c2.57-5.64,5-11.4,7.3-17.26"/>
  <path class="cls-2" d="m496.35,563.5c2.94-5.6,5.74-11.33,8.4-17.19"/>
  <path class="cls-2" d="m475.94,597.26c3.75-5.41,7.37-10.99,10.83-16.74"/>
  <path class="cls-2" d="m486.77,580.52c3.33-5.53,6.53-11.2,9.58-17.02"/>
  <path class="cls-2" d="m528.11,477.37c1.32-5.64,2.54-11.34,3.62-17.1"/>
  <path class="cls-2" d="m523.68,494.56c1.6-5.65,3.07-11.39,4.43-17.18"/>
  <path class="cls-2" d="m518.33,511.79c1.9-5.66,3.69-11.4,5.35-17.23"/>
  <path class="cls-2" d="m382.12,680.86c6.49-3.2,12.85-6.74,19.06-10.63"/>
  <path class="cls-2" d="m361.93,689.48c6.86-2.49,13.59-5.37,20.19-8.62"/>
  <path class="cls-2" d="m340.82,695.83c7.15-1.71,14.19-3.83,21.11-6.35"/>
  <path class="cls-2" d="m531.73,460.27c1.06-5.62,1.99-11.31,2.81-17.04"/>
  <path class="cls-2" d="m435.31,644.12c5.13-4.7,10.13-9.65,14.96-14.84"/>
  <path class="cls-2" d="m418.94,657.88c5.61-4.3,11.06-8.9,16.37-13.76"/>
  <path class="cls-2" d="m450.27,629.28c4.66-5.01,9.17-10.26,13.52-15.71"/>
  <path class="cls-2" d="m463.79,613.57c4.2-5.25,8.25-10.68,12.15-16.31"/>
  <path class="cls-2" d="m316.3,700.02c.93-.1,1.85-.22,2.78-.33"/>
  <path class="cls-2" d="m534.55,443.23c.81-5.61,1.51-11.26,2.09-16.97"/>
  <path class="cls-2" d="m538,409.33c.13-2.1.25-4.21.34-6.32"/>
  <path class="cls-2" d="m536.64,426.25c.57-5.6,1.03-11.24,1.37-16.92"/>
  <path class="cls-2" d="m523.67,273.45c-1.65-5.83-3.43-11.58-5.33-17.24"/>
  <path class="cls-2" d="m528.11,290.63c-1.36-5.8-2.84-11.53-4.44-17.18"/>
  <path class="cls-2" d="m518.34,256.21c-1.97-5.85-4.06-11.61-6.28-17.27"/>
  <path class="cls-2" d="m504.75,221.69c-2.66-5.85-5.47-11.58-8.41-17.18"/>
  <path class="cls-2" d="m512.06,238.94c-2.3-5.86-4.74-11.61-7.31-17.25"/>
  <path class="cls-2" d="m531.72,307.73c-1.09-5.77-2.29-11.47-3.61-17.11"/>
  <path class="cls-2" d="m486.77,187.49c3.33,5.53,6.53,11.2,9.58,17.02"/>
  <path class="cls-2" d="m536.63,341.75c-.58-5.71-1.26-11.37-2.07-16.98"/>
  <path class="cls-2" d="m538.01,358.67c.13,2.11.24,4.22.34,6.34"/>
  <path class="cls-2" d="m534.56,324.77c-.83-5.74-1.78-11.41-2.84-17.04"/>
  <path class="cls-2" d="m538.01,358.67c-.34-5.69-.81-11.32-1.38-16.92"/>
  <path class="cls-2" d="m479.37,175.78c2.54,3.82,5,7.73,7.4,11.72"/>
  <path class="cls-2" d="m107.59,580.14c3.45,5.74,7.05,11.32,10.79,16.73"/>
  <path class="cls-2" d="m158.89,643.76c5.29,4.87,10.73,9.48,16.32,13.79"/>
  <path class="cls-2" d="m118.38,596.87c3.89,5.63,7.93,11.06,12.11,16.31"/>
  <path class="cls-2" d="m143.98,628.89c4.82,5.2,9.79,10.16,14.91,14.87"/>
  <path class="cls-2" d="m130.49,613.18c4.34,5.45,8.84,10.7,13.48,15.71"/>
  <path class="cls-2" d="m56.25,403.01c.09,2.09.21,4.18.34,6.26"/>
  <path class="cls-2" d="m211.95,680.6c6.59,3.27,13.31,6.17,20.16,8.68"/>
  <path class="cls-2" d="m56.59,409.27c.34,5.67.8,11.3,1.36,16.88"/>
  <path class="cls-2" d="m175.21,657.54c5.76,4.44,11.67,8.56,17.72,12.37"/>
  <path class="cls-2" d="m253.2,695.69c-7.14-1.73-14.18-3.87-21.08-6.41"/>
  <path class="cls-2" d="m192.93,669.92c6.2,3.9,12.54,7.47,19.02,10.68"/>
  <path class="cls-2" d="m66.44,477.15c1.35,5.79,2.82,11.51,4.41,17.15"/>
  <path class="cls-2" d="m57.95,426.15c.58,5.69,1.27,11.34,2.08,16.93"/>
  <path class="cls-2" d="m62.83,460.09c1.08,5.75,2.29,11.44,3.6,17.07"/>
  <path class="cls-2" d="m60.03,443.08c.82,5.72,1.75,11.39,2.8,17"/>
  <path class="cls-2" d="m274.93,699.62c1.12.14,2.24.28,3.37.4"/>
  <path class="cls-2" d="m274.93,699.62c-7.35-.89-14.59-2.2-21.73-3.93"/>
  <path class="cls-2" d="m98.05,563.13c3.04,5.81,6.22,11.48,9.54,17.01"/>
  <path class="cls-2" d="m82.42,528.73c2.29,5.85,4.71,11.6,7.27,17.23"/>
  <path class="cls-2" d="m70.85,494.3c1.64,5.82,3.43,11.55,5.32,17.2"/>
  <path class="cls-2" d="m76.17,511.5c1.96,5.84,4.04,11.59,6.25,17.24"/>
  <path class="cls-2" d="m143.98,139.11c4.82-5.2,9.79-10.16,14.91-14.87"/>
  <path class="cls-2" d="m253.2,72.31c-7.14,1.73-14.17,3.88-21.08,6.42"/>
  <path class="cls-2" d="m211.95,87.4c-6.48,3.21-12.82,6.79-19.01,10.69"/>
  <path class="cls-2" d="m232.11,78.73c-6.85,2.51-13.58,5.4-20.16,8.67"/>
  <path class="cls-2" d="m192.94,98.09c-6.05,3.81-11.96,7.95-17.72,12.38"/>
  <path class="cls-2" d="m158.89,124.24c5.29-4.87,10.74-9.46,16.33-13.77"/>
  <path class="cls-2" d="m274.93,68.39c1.12-.14,2.24-.27,3.37-.39"/>
  <path class="cls-2" d="m139.15,144.45c1.59-1.81,3.2-3.58,4.83-5.33"/>
  <path class="cls-2" d="m253.2,72.31c7.14-1.73,14.39-3.04,21.73-3.93"/>
  <path class="cls-2" d="m98.06,204.87c3.04-5.81,6.22-11.48,9.54-17"/>
  <path class="cls-2" d="m56.25,365.01c.09-2.1.21-4.19.33-6.28"/>
  <path class="cls-2" d="m57.96,341.85c-.57,5.58-1.03,11.21-1.37,16.88"/>
  <path class="cls-2" d="m70.85,273.7c-1.59,5.64-3.07,11.36-4.42,17.14"/>
  <path class="cls-2" d="m115.23,175.78c-2.62,3.94-5.16,7.98-7.63,12.1"/>
  <path class="cls-2" d="m76.16,256.5c-1.89,5.65-3.66,11.39-5.3,17.21"/>
  <path class="cls-2" d="m82.41,239.26c-2.21,5.65-4.3,11.4-6.26,17.24"/>
  <path class="cls-2" d="m66.44,290.85c-1.32,5.63-2.52,11.32-3.6,17.07"/>
  <path class="cls-2" d="m62.84,307.92c-1.05,5.61-2,11.27-2.82,17"/>
  <path class="cls-2" d="m57.96,341.85c.58-5.69,1.26-11.34,2.06-16.94"/>
  <path class="cls-2" d="m89.69,222.03c-2.56,5.63-4.98,11.38-7.27,17.23"/>
  <path class="cls-2" d="m98.06,204.87c-2.92,5.59-5.72,11.31-8.37,17.16"/>
  <path class="cls-2" d="m382.12,87.14c-6.6-3.25-13.33-6.12-20.19-8.62"/>
  <path class="cls-2" d="m340.83,72.17c7.15,1.71,14.19,3.84,21.1,6.36"/>
  <path class="cls-2" d="m435.31,123.88c5.13,4.7,10.12,9.66,14.95,14.85"/>
  <path class="cls-2" d="m435.31,123.88c-5.31-4.86-10.77-9.45-16.38-13.75"/>
  <path class="cls-2" d="m401.17,97.78c-6.21-3.89-12.56-7.44-19.05-10.64"/>
  <path class="cls-2" d="m319.07,68.32c-.93-.11-1.85-.23-2.78-.32"/>
  <path class="cls-2" d="m418.93,110.13c-5.77-4.43-11.69-8.55-17.76-12.35"/>
  <path class="cls-2" d="m450.26,138.73c1.75,1.88,3.48,3.78,5.18,5.72"/>
  <path class="cls-2" d="m319.07,68.32c7.35.86,14.61,2.14,21.75,3.85"/>
  <path class="cls-2" d="m386.94,136.89c-5.36-3.36-10.85-6.42-16.45-9.18"/>
  <path class="cls-2" d="m429.33,172.23c-4.17-4.49-8.48-8.77-12.91-12.82"/>
  <path class="cls-2" d="m416.42,159.4c-4.58-4.19-9.3-8.15-14.14-11.86"/>
  <path class="cls-2" d="m432.07,175.22c-.91-1.01-1.82-2-2.74-2.99"/>
  <path class="cls-2" d="m402.28,147.55c-4.98-3.82-10.1-7.38-15.34-10.66"/>
  <path class="cls-2" d="m316.3,111.48c6.26.74,12.44,1.86,18.54,3.32"/>
  <path class="cls-2" d="m353.06,120.27c5.92,2.15,11.74,4.64,17.43,7.44"/>
  <path class="cls-2" d="m334.83,114.8c6.17,1.47,12.25,3.3,18.22,5.47"/>
  <path class="cls-2" d="m106.38,273.94c-1.63,4.88-3.16,9.83-4.58,14.85"/>
  <path class="cls-2" d="m101.79,288.79c-1.38,4.87-2.65,9.8-3.82,14.8"/>
  <path class="cls-2" d="m97.98,303.59c-1.14,4.86-2.17,9.77-3.1,14.74"/>
  <path class="cls-2" d="m111.78,259.07c-1.91,4.88-3.71,9.84-5.4,14.88"/>
  <path class="cls-2" d="m133.51,214.7c1.66-2.76,3.36-5.48,5.1-8.16"/>
  <path class="cls-2" d="m118.06,244.2c-2.21,4.86-4.3,9.82-6.28,14.87"/>
  <path class="cls-2" d="m133.51,214.7c-2.86,4.77-5.6,9.67-8.23,14.69"/>
  <path class="cls-2" d="m92.45,333c.71-4.94,1.52-9.83,2.43-14.67"/>
  <path class="cls-2" d="m125.28,229.38c-2.52,4.83-4.93,9.77-7.22,14.81"/>
  <path class="cls-2" d="m89.49,362.19c.29-4.89.68-9.75,1.17-14.57"/>
  <path class="cls-2" d="m89.32,365.01c.05-.94.11-1.88.17-2.82"/>
  <path class="cls-2" d="m92.45,333c-.69,4.83-1.29,9.7-1.79,14.62"/>
  <path class="cls-2" d="m499.68,318.14c-.94-4.98-1.98-9.91-3.12-14.77"/>
  <path class="cls-2" d="m502.13,332.86c-.71-4.95-1.53-9.86-2.45-14.71"/>
  <path class="cls-2" d="m496.57,303.37c-1.17-5.01-2.45-9.95-3.84-14.83"/>
  <path class="cls-2" d="m469.13,229.02c2.54,4.83,4.96,9.78,7.26,14.83"/>
  <path class="cls-2" d="m488.12,273.66c-1.7-5.05-3.51-10.02-5.43-14.91"/>
  <path class="cls-2" d="m492.73,288.54c-1.43-5.03-2.96-9.99-4.61-14.88"/>
  <path class="cls-2" d="m455.99,206.54c1.66,2.55,3.28,5.15,4.87,7.78"/>
  <path class="cls-2" d="m460.86,214.32c2.88,4.77,5.63,9.68,8.27,14.7"/>
  <path class="cls-2" d="m505.11,362.13c.06.96.12,1.92.17,2.88"/>
  <path class="cls-2" d="m505.11,362.13c-.3-4.91-.68-9.78-1.17-14.61"/>
  <path class="cls-2" d="m503.93,347.51c-.5-4.93-1.1-9.82-1.8-14.66"/>
  <path class="cls-2" d="m482.69,258.75c-1.99-5.06-4.1-10.03-6.31-14.9"/>
  <path class="cls-2" d="m223.58,127.96c5.69-2.82,11.49-5.32,17.4-7.49"/>
  <path class="cls-2" d="m277.95,111.53c.12-.01.23-.03.35-.05"/>
  <path class="cls-2" d="m259.19,114.94c-6.17,1.5-12.24,3.35-18.2,5.54"/>
  <path class="cls-2" d="m277.95,111.53c-6.34.77-12.6,1.91-18.76,3.41"/>
  <path class="cls-2" d="m164.91,172.62c-.8.86-1.59,1.73-2.38,2.6"/>
  <path class="cls-2" d="m223.58,127.96c-5.59,2.77-11.06,5.86-16.41,9.23"/>
  <path class="cls-2" d="m177.78,159.77c4.57-4.2,9.27-8.17,14.1-11.89"/>
  <path class="cls-2" d="m164.91,172.62c4.16-4.49,8.45-8.78,12.86-12.84"/>
  <path class="cls-2" d="m119.22,264.09c-1.83,4.68-3.56,9.44-5.19,14.28"/>
  <path class="cls-2" d="m103,320.97c.89-4.77,1.89-9.48,2.98-14.14"/>
  <path class="cls-2" d="m125.25,249.82c-2.12,4.67-4.13,9.42-6.03,14.27"/>
  <path class="cls-2" d="m100.67,335.05c.68-4.74,1.46-9.44,2.33-14.08"/>
  <path class="cls-2" d="m144.53,214.35c-1.52,2.35-3,4.74-4.45,7.16"/>
  <path class="cls-2" d="m140.08,221.51c-2.75,4.58-5.38,9.28-7.9,14.09"/>
  <path class="cls-2" d="m114.04,278.37c-1.57,4.68-3.04,9.43-4.4,14.25"/>
  <path class="cls-2" d="m109.64,292.62c-1.32,4.67-2.54,9.41-3.66,14.2"/>
  <path class="cls-2" d="m97.83,363.07c.28-4.7.65-9.36,1.12-13.99"/>
  <path class="cls-2" d="m132.18,235.6c-2.42,4.63-4.73,9.38-6.93,14.22"/>
  <path class="cls-2" d="m98.94,349.08c.48-4.72,1.06-9.39,1.72-14.03"/>
  <path class="cls-2" d="m97.83,363.07c-.04.65-.09,1.29-.12,1.94"/>
  <path class="cls-2" d="m495.64,348.97c-.48-4.73-1.06-9.42-1.73-14.07"/>
  <path class="cls-2" d="m496.77,363c-.28-4.71-.65-9.39-1.12-14.03"/>
  <path class="cls-2" d="m493.91,334.91c-.69-4.75-1.47-9.46-2.35-14.12"/>
  <path class="cls-2" d="m491.56,320.78c-.9-4.78-1.9-9.51-2.99-14.18"/>
  <path class="cls-2" d="m496.77,363c.04.67.09,1.33.12,2"/>
  <path class="cls-2" d="m226.53,138.25c-5.37,2.66-10.62,5.63-15.75,8.86"/>
  <path class="cls-2" d="m168.46,183.02c.58-.64,1.17-1.28,1.76-1.91"/>
  <path class="cls-2" d="m243.23,131.05c-5.67,2.08-11.25,4.49-16.7,7.19"/>
  <path class="cls-2" d="m278.3,122.51c-5.95.74-11.81,1.82-17.59,3.23"/>
  <path class="cls-2" d="m182.57,168.79c4.38-4.03,8.9-7.85,13.53-11.42"/>
  <path class="cls-2" d="m196.1,157.37c4.77-3.68,9.67-7.1,14.68-10.26"/>
  <path class="cls-2" d="m243.23,131.05c5.72-2.1,11.55-3.88,17.47-5.31"/>
  <path class="cls-2" d="m182.57,168.79c-4.24,3.9-8.36,8.02-12.35,12.33"/>
  <path class="cls-2" d="m333.32,125.6c5.93,1.41,11.76,3.16,17.49,5.25"/>
  <path class="cls-2" d="m367.54,137.99c5.38,2.65,10.64,5.59,15.79,8.81"/>
  <path class="cls-2" d="m411.63,168.42c-4.4-4.03-8.93-7.82-13.58-11.38"/>
  <path class="cls-2" d="m333.32,125.6c-5.6-1.33-11.27-2.38-17.02-3.09"/>
  <path class="cls-2" d="m350.81,130.85c5.68,2.07,11.26,4.46,16.73,7.15"/>
  <path class="cls-2" d="m398.05,157.03c-4.78-3.67-9.69-7.08-14.72-10.23"/>
  <path class="cls-2" d="m424.02,180.73c.71.76,1.42,1.52,2.12,2.3"/>
  <path class="cls-2" d="m424.02,180.73c-4-4.31-8.14-8.42-12.39-12.31"/>
  <path class="cls-2" d="m268.15,589.31c3.35.81,6.73,1.5,10.15,2.03"/>
  <path class="cls-2" d="m254.26,585.07c-4.51-1.66-8.94-3.57-13.27-5.73"/>
  <path class="cls-2" d="m206.05,555.06c3.48,3.21,7.07,6.23,10.75,9.07"/>
  <path class="cls-2" d="m268.15,589.31c-4.7-1.14-9.34-2.56-13.89-4.23"/>
  <path class="cls-2" d="m206.05,555.06c-2.9-2.67-5.73-5.46-8.48-8.37"/>
  <path class="cls-2" d="m240.99,579.35c-4.26-2.12-8.44-4.47-12.52-7.05"/>
  <path class="cls-2" d="m228.46,572.3c-3.98-2.51-7.87-5.24-11.67-8.16"/>
  <path class="cls-2" d="m155.73,479.28c1.51,3.85,3.09,7.65,4.77,11.36"/>
  <path class="cls-2" d="m142.83,434.09c.71,3.79,1.52,7.52,2.39,11.23"/>
  <path class="cls-2" d="m141.01,422.89c.54,3.77,1.13,7.51,1.82,11.2"/>
  <path class="cls-2" d="m172.3,513.13c-2.18-3.64-4.28-7.37-6.28-11.19"/>
  <path class="cls-2" d="m151.62,467.94c1.29,3.85,2.66,7.63,4.11,11.35"/>
  <path class="cls-2" d="m172.3,513.13c.45.74.88,1.5,1.33,2.24"/>
  <path class="cls-2" d="m148.11,456.62c1.08,3.83,2.26,7.6,3.51,11.32"/>
  <path class="cls-2" d="m160.5,490.64c1.75,3.85,3.6,7.61,5.52,11.29"/>
  <path class="cls-2" d="m145.22,445.32c.89,3.81,1.84,7.58,2.89,11.29"/>
  <path class="cls-2" d="m141.01,422.89c-.53-3.68-1-7.4-1.38-11.15"/>
  <path class="cls-2" d="m139.63,411.75c-.29-2.9-.55-5.81-.75-8.74"/>
  <path class="cls-2" d="m438.73,288.4c1.47,3.73,2.85,7.52,4.15,11.38"/>
  <path class="cls-2" d="m420.96,252.65c.37.61.73,1.23,1.1,1.85"/>
  <path class="cls-2" d="m433.93,277.02c1.69,3.72,3.28,7.52,4.8,11.38"/>
  <path class="cls-2" d="m453.57,344.96c-.54-3.78-1.14-7.53-1.84-11.24"/>
  <path class="cls-2" d="m442.88,299.78c1.25,3.73,2.44,7.51,3.53,11.35"/>
  <path class="cls-2" d="m451.73,333.73c-.72-3.8-1.53-7.55-2.41-11.27"/>
  <path class="cls-2" d="m428.38,265.7c1.94,3.69,3.79,7.46,5.55,11.32"/>
  <path class="cls-2" d="m449.32,322.46c-.9-3.82-1.86-7.6-2.91-11.33"/>
  <path class="cls-2" d="m455.72,365.01c-.2-2.97-.47-5.92-.77-8.86"/>
  <path class="cls-2" d="m454.96,356.15c-.38-3.76-.86-7.49-1.39-11.19"/>
  <path class="cls-2" d="m422.06,254.5c2.2,3.64,4.31,7.37,6.32,11.21"/>
  <path class="cls-2" d="m453.57,423.04c.53-3.7,1.01-7.42,1.39-11.19"/>
  <path class="cls-2" d="m428.39,502.3c-2.01,3.83-4.12,7.57-6.32,11.21"/>
  <path class="cls-2" d="m455.72,403.01c-.2,2.97-.47,5.91-.76,8.85"/>
  <path class="cls-2" d="m438.74,479.6c1.47-3.73,2.85-7.52,4.15-11.38"/>
  <path class="cls-2" d="m433.93,490.98c1.69-3.72,3.28-7.52,4.8-11.38"/>
  <path class="cls-2" d="m442.88,468.22c1.25-3.73,2.44-7.51,3.53-11.35"/>
  <path class="cls-2" d="m449.33,445.54c.87-3.72,1.69-7.47,2.41-11.27"/>
  <path class="cls-2" d="m453.57,423.04c-.54,3.78-1.14,7.53-1.84,11.24"/>
  <path class="cls-2" d="m446.41,456.87c1.06-3.72,2.02-7.51,2.91-11.33"/>
  <path class="cls-2" d="m428.39,502.3c1.94-3.69,3.79-7.46,5.55-11.32"/>
  <path class="cls-2" d="m420.96,515.37c.38-.61.73-1.24,1.1-1.86"/>
  <path class="cls-2" d="m365.65,572.6c-4.09,2.56-8.28,4.9-12.56,7"/>
  <path class="cls-2" d="m377.35,564.48c-3.8,2.91-7.71,5.63-11.71,8.13"/>
  <path class="cls-2" d="m339.78,585.28c4.52-1.64,8.96-3.54,13.31-5.67"/>
  <path class="cls-2" d="m377.35,564.48c3.7-2.83,7.3-5.85,10.8-9.05"/>
  <path class="cls-2" d="m316.3,591.34c3.22-.5,6.41-1.14,9.58-1.89"/>
  <path class="cls-2" d="m339.78,585.28c-4.56,1.65-9.2,3.05-13.91,4.17"/>
  <path class="cls-2" d="m397.03,546.69c-2.88,3.05-5.84,5.96-8.88,8.74"/>
  <path class="cls-2" d="m141.01,345.11c-.53,3.68-1,7.39-1.38,11.14"/>
  <path class="cls-2" d="m142.83,333.91c.71-3.79,1.53-7.52,2.39-11.23"/>
  <path class="cls-2" d="m155.74,288.72c-1.46,3.72-2.83,7.5-4.11,11.35"/>
  <path class="cls-2" d="m145.22,322.68c.89-3.81,1.84-7.58,2.89-11.29"/>
  <path class="cls-2" d="m141.01,345.11c.54-3.77,1.13-7.51,1.82-11.2"/>
  <path class="cls-2" d="m173.64,252.65c-.45.73-.88,1.49-1.33,2.23"/>
  <path class="cls-2" d="m166.03,266.07c-1.92,3.68-3.77,7.44-5.52,11.29"/>
  <path class="cls-2" d="m160.51,277.36c-1.68,3.71-3.26,7.51-4.77,11.36"/>
  <path class="cls-2" d="m172.31,254.88c-2.18,3.64-4.28,7.37-6.28,11.19"/>
  <path class="cls-2" d="m151.62,300.07c-1.25,3.72-2.43,7.49-3.51,11.32"/>
  <path class="cls-2" d="m138.87,365.01c.2-2.94.46-5.85.75-8.76"/>
  <path class="cls-2" d="m452.22,473.61c1.33-3.97,2.58-8,3.74-12.08"/>
  <path class="cls-2" d="m465.05,413.63c-.41,4-.89,7.97-1.46,11.9"/>
  <path class="cls-2" d="m465.94,403.01c-.23,3.57-.53,7.11-.89,10.62"/>
  <path class="cls-2" d="m459.08,449.48c.93-3.95,1.77-7.95,2.53-12"/>
  <path class="cls-2" d="m461.61,437.49c.74-3.94,1.4-7.93,1.98-11.95"/>
  <path class="cls-2" d="m455.96,461.53c1.12-3.96,2.17-7.98,3.12-12.05"/>
  <path class="cls-2" d="m129.54,354.47c.4-3.99.89-7.94,1.45-11.86"/>
  <path class="cls-2" d="m129.54,354.47c-.35,3.49-.65,7-.88,10.54"/>
  <path class="cls-2" d="m142.29,294.68c-1.33,3.96-2.57,7.98-3.72,12.05"/>
  <path class="cls-2" d="m164.3,246.58c-2.32,3.87-4.55,7.85-6.68,11.92"/>
  <path class="cls-2" d="m135.47,318.74c.95-4.05,1.98-8.06,3.1-12.01"/>
  <path class="cls-2" d="m166.41,243.13c-.71,1.14-1.41,2.29-2.11,3.45"/>
  <path class="cls-2" d="m157.62,258.5c-2.05,3.92-4,7.93-5.86,12.02"/>
  <path class="cls-2" d="m132.95,330.7c.76-4.03,1.59-8.02,2.52-11.96"/>
  <path class="cls-2" d="m146.67,282.6c-1.55,3.96-3.01,7.98-4.38,12.08"/>
  <path class="cls-2" d="m130.99,342.61c.58-4.01,1.23-7.98,1.97-11.91"/>
  <path class="cls-2" d="m151.76,270.53c-1.79,3.95-3.49,7.97-5.09,12.07"/>
  <path class="cls-2" d="m461.61,330.52c-.76-4.04-1.61-8.04-2.53-12"/>
  <path class="cls-2" d="m459.08,318.52c-.95-4.07-2-8.08-3.12-12.05"/>
  <path class="cls-2" d="m463.59,342.46c-.58-4.02-1.24-8.01-1.98-11.95"/>
  <path class="cls-2" d="m436.78,258.14c2.06,3.93,4.03,7.94,5.9,12.04"/>
  <path class="cls-2" d="m465.05,354.37c.36,3.52.66,7.07.89,10.64"/>
  <path class="cls-2" d="m430.07,246.2c2.34,3.87,4.57,7.86,6.71,11.94"/>
  <path class="cls-2" d="m447.8,282.28c1.56,3.97,3.03,8,4.41,12.11"/>
  <path class="cls-2" d="m465.05,354.37c-.41-4-.89-7.97-1.46-11.9"/>
  <path class="cls-2" d="m455.96,306.47c-1.16-4.09-2.41-8.12-3.74-12.08"/>
  <path class="cls-2" d="m430.07,246.2c-.62-1.03-1.25-2.05-1.88-3.07"/>
  <path class="cls-2" d="m442.68,270.18c1.8,3.95,3.51,7.99,5.12,12.1"/>
  <path class="cls-2" d="m251.52,597.95c-4.8-1.77-9.51-3.8-14.12-6.09"/>
  <path class="cls-2" d="m266.3,602.45c-5.01-1.22-9.93-2.72-14.77-4.5"/>
  <path class="cls-2" d="m200.22,566.02c3.71,3.41,7.52,6.63,11.44,9.66"/>
  <path class="cls-2" d="m211.66,575.67c4.03,3.11,8.18,6.01,12.41,8.68"/>
  <path class="cls-2" d="m278.3,604.79c-4.04-.59-8.05-1.38-12-2.34"/>
  <path class="cls-2" d="m237.4,591.85c-4.54-2.25-8.98-4.76-13.32-7.5"/>
  <path class="cls-2" d="m190.34,556.2c3.2,3.43,6.5,6.7,9.88,9.82"/>
  <path class="cls-2" d="m151.75,497.48c1.86,4.1,3.81,8.1,5.86,12.02"/>
  <path class="cls-2" d="m128.66,403.01c.23,3.53.53,7.04.88,10.52"/>
  <path class="cls-2" d="m157.62,509.5c2.13,4.07,4.35,8.05,6.68,11.92"/>
  <path class="cls-2" d="m132.95,437.3c.76,4.03,1.59,8.02,2.52,11.96"/>
  <path class="cls-2" d="m129.54,413.53c.4,3.99.89,7.95,1.45,11.86"/>
  <path class="cls-2" d="m132.95,437.3c-.74-3.93-1.39-7.9-1.97-11.91"/>
  <path class="cls-2" d="m166.41,524.88c-.71-1.14-1.42-2.3-2.12-3.46"/>
  <path class="cls-3" d="m327.72,602.58c5.01-1.19,9.95-2.68,14.8-4.44"/>
  <path class="cls-3" d="m356.67,592.11c4.55-2.24,9.01-4.72,13.36-7.45"/>
  <path class="cls-3" d="m316.3,604.79c3.85-.56,7.66-1.31,11.42-2.2"/>
  <path class="cls-3" d="m356.67,592.11c-4.63,2.27-9.35,4.29-14.16,6.04"/>
  <path class="cls-3" d="m370.03,584.66c4.25-2.66,8.41-5.54,12.46-8.64"/>
  <path class="cls-2" d="m404.26,556.2c-3.32,3.56-6.76,6.96-10.29,10.18"/>
  <path class="cls-3" d="m382.49,576.02c3.93-3.01,7.76-6.23,11.48-9.64"/>
  <path class="cls-2" d="m499.51,142.66c4.24,6.14,8.31,12.48,12.22,18.99"/>
  <path class="cls-2" d="m547.35,239.46c-2.22-6.62-4.58-13.14-7.09-19.54"/>
  <path class="cls-2" d="m569.48,355.36c.19,3.2.36,6.41.49,9.64"/>
  <path class="cls-2" d="m532.02,200.38c-3-6.63-6.17-13.12-9.48-19.46"/>
  <path class="cls-2" d="m558.37,278.4c-1.53-6.56-3.2-13.04-5-19.44"/>
  <path class="cls-2" d="m565.62,317.03c-.93-6.49-2-12.91-3.19-19.27"/>
  <path class="cls-2" d="m511.73,161.64c3.76,6.26,7.36,12.7,10.81,19.28"/>
  <path class="cls-2" d="m569.48,355.36c-.38-6.43-.9-12.81-1.53-19.14"/>
  <path class="cls-2" d="m565.62,317.03c.91,6.34,1.68,12.74,2.33,19.2"/>
  <path class="cls-2" d="m558.37,278.4c1.49,6.38,2.84,12.83,4.06,19.36"/>
  <path class="cls-2" d="m532.02,200.38c2.9,6.39,5.64,12.9,8.24,19.54"/>
  <path class="cls-2" d="m547.35,239.46c2.14,6.41,4.16,12.9,6.02,19.5"/>
  <path class="cls-2" d="m322.02,26.19c8.33,1,16.55,2.48,24.64,4.44"/>
  <path class="cls-2" d="m370.57,37.9c-7.83-2.87-15.8-5.3-23.9-7.26"/>
  <path class="cls-2" d="m470.48,106.37c5.27,5.69,10.38,11.61,15.3,17.79"/>
  <path class="cls-2" d="m414.98,59.85c-7.03-4.43-14.22-8.47-21.56-12.11"/>
  <path class="cls-2" d="m316.25,25.58c1.93.18,3.85.39,5.77.62"/>
  <path class="cls-2" d="m453.59,89.5c-6-5.52-12.17-10.74-18.51-15.62"/>
  <path class="cls-2" d="m435.08,73.88c-6.53-5.03-13.23-9.71-20.09-14.03"/>
  <path class="cls-2" d="m470.48,106.37c-5.46-5.9-11.09-11.53-16.9-16.87"/>
  <path class="cls-2" d="m393.42,47.74c-7.47-3.7-15.09-6.99-22.86-9.84"/>
  <path class="cls-2" d="m135.47,449.26c.95,4.05,1.98,8.06,3.1,12.01"/>
  <path class="cls-2" d="m142.28,473.33c1.37,4.09,2.83,8.12,4.38,12.08"/>
  <path class="cls-2" d="m138.56,461.27c1.15,4.08,2.39,8.09,3.72,12.05"/>
  <path class="cls-2" d="m447.81,485.72c1.56-3.97,3.03-8,4.41-12.11"/>
  <path class="cls-2" d="m442.69,497.82c1.8-3.96,3.51-7.99,5.12-12.1"/>
  <path class="cls-2" d="m436.79,509.87c2.06-3.93,4.03-7.94,5.9-12.04"/>
  <path class="cls-2" d="m430.08,521.81c2.34-3.88,4.57-7.86,6.71-11.94"/>
  <path class="cls-2" d="m428.19,524.88c.64-1.02,1.26-2.04,1.89-3.07"/>
  <path class="cls-2" d="m89.69,545.97c2.65,5.84,5.44,11.57,8.36,17.16"/>
  <path class="cls-2" d="m146.66,485.4c1.6,4.1,3.3,8.13,5.09,12.08"/>
  <path class="cls-2" d="m462.22,235.23c2.43,4.64,4.76,9.39,6.96,14.24"/>
  <path class="cls-2" d="m469.19,249.47c2.13,4.67,4.15,9.44,6.06,14.3"/>
  <path class="cls-2" d="m480.46,278.08c-1.63-4.85-3.37-9.62-5.21-14.31"/>
  <path class="cls-2" d="m454.28,221.13c2.76,4.58,5.41,9.28,7.94,14.1"/>
  <path class="cls-2" d="m488.57,306.6c-1.13-4.81-2.36-9.55-3.68-14.24"/>
  <path class="cls-2" d="m484.88,292.36c-1.37-4.83-2.85-9.59-4.42-14.28"/>
  <path class="cls-2" d="m450.06,214.35c1.44,2.23,2.84,4.49,4.22,6.78"/>
  <path class="cls-2" d="m191.88,147.89c4.97-3.83,10.07-7.4,15.3-10.69"/>
</svg>