<?xml version="1.0" encoding="UTF-8"?><svg xmlns="http://www.w3.org/2000/svg" viewBox="0 0 601 768"><defs><style>.cls-1,.cls-2,.cls-3,.cls-4,.cls-5,.cls-6,.cls-7,.cls-8,.cls-9,.cls-10,.cls-11,.cls-12,.cls-13,.cls-14,.cls-15{fill:none;}.cls-1,.cls-16,.cls-17{stroke-width:0px;}.cls-2{stroke:#22b573;}.cls-2,.cls-3,.cls-4,.cls-5,.cls-6,.cls-7{stroke-width:7px;}.cls-2,.cls-3,.cls-4,.cls-5,.cls-6,.cls-7,.cls-8,.cls-9,.cls-10,.cls-11,.cls-12,.cls-13,.cls-14{stroke-linecap:round;}.cls-2,.cls-3,.cls-4,.cls-5,.cls-6,.cls-7,.cls-8,.cls-9,.cls-10,.cls-11,.cls-12,.cls-13,.cls-14,.cls-15{stroke-miterlimit:10;}.cls-3,.cls-14{stroke:red;}.cls-4{stroke:#999;}.cls-5,.cls-10{stroke:lime;}.cls-6,.cls-11{stroke:aqua;}.cls-7{stroke:blue;}.cls-8{stroke:#29abe2;}.cls-8,.cls-9,.cls-10,.cls-11,.cls-12,.cls-13,.cls-14{stroke-width:9px;}.cls-9{stroke:#ccc;}.cls-12{stroke:#8c6239;}.cls-13{stroke:#f7931e;}.cls-16{fill:#ccc;}.cls-17{fill:red;}.cls-15{stroke:#000;stroke-width:.25px;}</style></defs><g id="bibs_-_copie_2"><g id="SRC_bibs_-_copie"><path class="cls-9" d="m24.18,365.01c3.33-83.87,28.59-160.12,68.4-219.05"/><path class="cls-9" d="m278.3,25.87c-61.85,5.57-118.04,38.13-161.8,88.77"/><path class="cls-9" d="m570.42,403.01c-7.2,181.16-116.71,326.76-254.12,339.14"/><path class="cls-9" d="m278.3,742.15c-137.41-12.38-246.92-157.98-254.12-339.14"/><path class="cls-9" d="m538.34,403.01c-7.12,157.94-102.32,284.78-222.05,297.01"/><path class="cls-9" d="m538.34,365.01c-3.26-72.25-24.94-137.99-58.98-189.23"/><path class="cls-9" d="m278.3,700.02c-119.72-12.23-214.93-139.06-222.05-297.01"/><path class="cls-9" d="m278.3,68c-53.03,5.42-101.26,33.32-139.15,76.45"/><path class="cls-9" d="m115.23,175.78c-34.04,51.24-55.72,116.98-58.98,189.23"/><path class="cls-9" d="m316.3,68c53.03,5.42,101.26,33.32,139.15,76.45"/><path class="cls-9" d="m316.3,111.48c43.95,5.21,83.95,28.32,115.77,63.73"/><path class="cls-9" d="m138.6,206.54c-28.12,43.28-46.13,98.19-49.29,158.47"/><path class="cls-9" d="m505.28,365.01c-3.15-60.28-21.17-115.19-49.29-158.47"/><path class="cls-9" d="m278.3,111.48c-43.95,5.21-83.95,28.32-115.77,63.73"/><path class="cls-9" d="m97.7,365.01c3.12-57.25,20.21-109.41,46.83-150.66"/><path class="cls-9" d="m496.89,365.01c-3.12-57.25-20.21-109.41-46.83-150.66"/><path class="cls-9" d="m278.3,122.51c-41.64,5.15-79.57,27.05-109.84,60.51"/><path class="cls-9" d="m316.3,122.51c41.64,5.15,79.57,27.05,109.84,60.51"/><path class="cls-9" d="m197.56,546.69c22.64,23.94,50.37,39.91,80.74,44.65"/><path class="cls-9" d="m173.64,515.37c-19.3-31.26-31.85-69.98-34.76-112.36"/><path class="cls-9" d="m455.72,365.01c-2.91-42.38-15.47-81.1-34.76-112.36"/><path class="cls-9" d="m455.72,403.01c-2.91,42.38-15.47,81.1-34.76,112.36"/><path class="cls-9" d="m397.03,546.69c-22.64,23.94-50.37,39.91-80.74,44.65"/><path class="cls-9" d="m173.64,252.65c-19.3,31.26-31.85,69.98-34.76,112.36"/><path class="cls-9" d="m428.19,524.88c21.11-33.75,34.78-75.81,37.75-121.87"/><path class="cls-9" d="m128.66,365.01c2.97-46.06,16.64-88.12,37.75-121.87"/><path class="cls-9" d="m465.94,365.01c-2.97-46.06-16.64-88.12-37.75-121.87"/><path class="cls-9" d="m190.34,556.2c24.54,26.3,54.8,43.72,87.96,48.59"/><path class="cls-9" d="m128.66,403.01c2.97,46.06,16.64,88.12,37.75,121.87"/><path class="cls-9" d="m404.26,556.2c-24.54,26.3-54.8,43.72-87.96,48.59"/><path class="cls-9" d="m569.97,365c-3.34-85.42-29.42-162.94-70.45-222.34"/><path class="cls-9" d="m316.25,25.58c65.6,6.04,124.8,42.46,169.53,98.59"/><ellipse class="cls-16" cx="266.34" cy="625.99" rx="12.15" ry="6.79" transform="translate(-171.28 105.13) rotate(-16.99)"/><ellipse class="cls-16" cx="259.35" cy="540.52" rx="8.55" ry="5.25" transform="translate(-146.61 99.36) rotate(-16.99)"/><ellipse class="cls-16" cx="228.35" cy="510.52" rx="5.25" ry="8.55" transform="translate(-301.86 688.43) rotate(-84.45)"/><ellipse class="cls-16" cx="262.35" cy="505.52" rx="5.25" ry="8.55" transform="translate(-266.17 717.76) rotate(-84.45)"/><ellipse class="cls-16" cx="333.35" cy="541.52" rx="8.55" ry="5.25" transform="translate(-80.51 58.73) rotate(-8.99)"/><ellipse class="cls-16" cx="336.35" cy="506.52" rx="5.25" ry="8.55" transform="translate(-270.48 544.55) rotate(-60)"/><ellipse class="cls-16" cx="372.35" cy="514.52" rx="8.55" ry="5.25" transform="translate(-233.66 704.6) rotate(-71.52)"/><path class="cls-16" d="m431.34,340.84c3.75,0,6.79,5.44,6.79,12.15,0,6.71-3.04,12.15-6.79,12.15-3.75,0-6.79-5.44-6.79-12.15s3.04-12.15,6.79-12.15Z"/><path class="cls-16" d="m167.34,340.84c3.75,0,6.79,5.44,6.79,12.15,0,6.71-3.04,12.15-6.79,12.15-3.75,0-6.79-5.44-6.79-12.15s3.04-12.15,6.79-12.15Z"/><ellipse class="cls-16" cx="223.34" cy="164.99" rx="12.15" ry="6.79" transform="translate(-54.15 175.21) rotate(-38.56)"/></g><g id="SPOTS"><g id="BD-S-EU-J"><path class="cls-14" d="m397.03,546.69c-6.19,6.55-12.77,12.5-19.68,17.79"/><path class="cls-14" d="m155.73,479.28c5.03,12.85,11.03,24.95,17.9,36.08"/><path class="cls-14" d="m197.56,546.69c6.06,6.41,12.49,12.24,19.24,17.45"/></g><path id="BD-S-JP-J" class="cls-14" d="m138.87,403.01c1.28,18.69,4.46,36.67,9.25,53.61"/><path id="BD-O-EU-J" class="cls-14" d="m155.73,479.28c1.51,3.85,3.11,7.63,4.79,11.34"/><path id="BD-O-M-J" class="cls-14" d="m148.12,456.61c1.08,3.83,2.25,7.6,3.5,11.32"/><path id="BD-S-US-J" class="cls-14" d="m148.12,456.61c2.2,7.79,4.75,15.35,7.61,22.67"/><path id="PARIS" class="cls-14" d="m404.26,556.2c-24.54,26.3-54.8,43.72-87.96,48.59"/><path id="ARCHI" class="cls-14" d="m459.08,449.48c-6.54,27.87-17.13,53.4-30.89,75.4"/><path id="ARCHI-J" class="cls-14" d="m459.08,449.48c-.95,4.07-2,8.08-3.13,12.04"/><path id="BD-S-US" class="cls-14" d="m148.13,311.39c-4.8,16.94-7.97,34.92-9.25,53.62"/><path id="_920" class="cls-14" d="m278.3,742.15c-97.95-8.82-181.72-85.36-224.36-194.2"/><path id="BD-S-MD" class="cls-14" d="m131,342.61c-1.06,7.34-1.85,14.81-2.34,22.4"/><path id="BJ-O-MD" class="cls-14" d="m132.97,330.7c-.74,3.93-1.39,7.9-1.97,11.91"/><path id="BD-O-JP" class="cls-14" d="m138.57,306.73c-2.2,7.79-4.06,15.8-5.59,23.98"/><path id="GEO-CARTE" class="cls-14" d="m114.06,278.38c-3.09,9.22-5.8,18.71-8.08,28.45"/><path id="GEO-VOY" class="cls-14" d="m144.53,214.35c-12.37,19.18-22.67,40.72-30.47,64.03"/><path id="MMA" class="cls-14" d="m105.99,306.83c-1.09,4.66-2.09,9.37-2.99,14.14"/><path id="BD-HUMOUR" class="cls-14" d="m420.96,252.65c2.6,4.22,5.07,8.58,7.42,13.05"/><path id="BD-ERO" class="cls-14" d="m428.38,265.7c1.94,3.69,3.78,7.47,5.54,11.32"/><g id="BD-O-EU"><path class="cls-14" d="m455.72,403.01c-1.88,27.41-7.82,53.27-16.99,76.59"/><path class="cls-14" d="m433.92,277.03c11.92,26.16,19.61,56.03,21.8,87.98"/></g><path id="DANSE" class="cls-10" d="m56.25,403.01c.35,7.79.92,15.51,1.7,23.14"/><path id="ARCHEO" class="cls-14" d="m103,320.97c-2.68,14.26-4.48,28.97-5.3,44.04"/><path id="BD-O-US" class="cls-14" d="m155.74,288.72c-4.23,10.81-7.76,22.16-10.52,33.96"/><g id="BD-S-JP"><path class="cls-14" d="m173.64,252.65c-6.87,11.13-12.87,23.22-17.9,36.07"/><path class="cls-14" d="m166.41,243.13c-11.79,18.85-21.26,40.3-27.84,63.59"/></g><path class="cls-14" d="m23.7,365C30.78,183.51,140.56,37.63,278.25,25.5"/><path class="cls-14" d="m316.25,741.78c137.13-12.63,246.38-157.95,253.69-338.78"/><g id="PLEIADE"><path class="cls-14" d="m278.3,122.51c-12.03,1.49-23.75,4.38-35.06,8.54"/><path class="cls-14" d="m316.3,122.51c11.83,1.46,23.37,4.28,34.51,8.33"/><path class="cls-14" d="m383.33,146.8c-5.15-3.22-10.41-6.16-15.79-8.81"/></g><g id="_011"><path id="_011-2" class="cls-14" d="m24.18,403.01c2.07,52.02,12.58,101.1,29.76,144.94"/><path class="cls-14" d="m71.22,180.7c-27.69,52.93-44.86,116.1-47.52,184.3"/></g><path id="_020" class="cls-14" d="m71.22,180.7c-3.32,6.35-6.49,12.84-9.5,19.48"/><path id="_030" class="cls-14" d="m140.29,89.27c-26.99,24.78-50.42,55.78-69.07,91.43"/><path id="_040" class="cls-14" d="m200.53,47.58c-21.5,10.62-41.71,24.68-60.24,41.69"/><path id="_060" class="cls-14" d="m223.41,37.78c-7.77,2.84-15.4,6.11-22.88,9.8"/><path id="_070" class="cls-14" d="m247.33,30.56c-16.14,3.87-31.78,9.61-46.79,17.02"/><g id="_100"><path class="cls-14" d="m278.25,25.5c-10.48.92-20.8,2.63-30.92,5.06"/><path class="cls-14" d="m316.25,25.58c18.69,1.72,36.85,5.92,54.32,12.33"/></g><path id="_200" class="cls-14" d="m435.07,73.89c-26.87-20.71-56.68-35.57-88.41-43.24"/><path id="_300" class="cls-14" d="m414.98,59.85c19.97,12.57,38.59,28.23,55.51,46.51"/><path id="_400" class="cls-14" d="m485.78,124.16c-10.03-12.59-20.8-24.18-32.2-34.66"/><g id="_500"><path class="cls-14" d="m499.5,142.67c4.24,6.14,8.31,12.47,12.22,18.98"/><path class="cls-14" d="m470.49,106.36c5.27,5.69,10.37,11.62,15.3,17.8"/></g><path id="_600-700" class="cls-14" d="m499.5,142.67c4.24,6.14,8.31,12.47,12.22,18.98"/><path id="_800" class="cls-14" d="m511.72,161.65c10.87,18.1,20.44,37.61,28.53,58.28"/><g id="_840"><path id="_840-2" class="cls-14" d="m540.25,219.93c17.18,43.88,27.68,93,29.72,145.07"/><path class="cls-14" d="m569.94,403c-1.21,29.97-5.24,58.96-11.71,86.54"/></g><path id="_850" class="cls-14" d="m558.23,489.54c-4.77,20.3-10.87,39.82-18.17,58.4"/><path id="_900" class="cls-14" d="m522.3,586.87c-18.63,35.55-42.01,66.48-68.95,91.2"/><path id="_940" class="cls-14" d="m470.25,661.26c-35.01,37.74-77.29,64.29-123.68,75.48"/><path id="_950" class="cls-14" d="m346.57,736.73c-9.93,2.4-20.05,4.1-30.32,5.05"/><path id="ANIMATION-_-JV" class="cls-14" d="m411.63,168.42c-4.4-4.03-8.93-7.82-13.58-11.38"/><path id="ANTHO" class="cls-14" d="m428.39,502.3c-2.35,4.48-4.82,8.84-7.43,13.06"/><path id="PATRIM" class="cls-14" d="m438.74,479.6c-3.09,7.87-6.55,15.45-10.35,22.7"/><g id="PHOTO"><path class="cls-14" d="m57.96,341.85c-.77,7.64-1.35,15.36-1.7,23.16"/><path class="cls-14" d="m97.98,303.59c-4.59,19.63-7.55,40.19-8.66,61.42"/></g><path id="GRAPHISME" class="cls-14" d="m111.8,259.08c-1.91,4.88-3.71,9.83-5.4,14.87"/><path id="ESTAMPES" class="cls-14" d="m106.39,273.95c-3.22,9.61-6.04,19.49-8.42,29.64"/><path id="DICO" class="cls-14" d="m196.1,157.37c-4.63,3.57-9.14,7.38-13.53,11.42"/><path id="PEINTURE" class="cls-14" d="m316.3,111.48c43.95,5.21,83.95,28.32,115.77,63.73"/><path id="BD-AUTEURS" class="cls-14" d="m488.57,306.6c2.17,9.23,3.95,18.67,5.34,28.3"/><g id="MODE-ET-DESIGN"><path class="cls-8" d="m66.45,477.15c1.35,5.79,2.83,11.5,4.42,17.14"/><path class="cls-8" d="m82.43,528.73c2.29,5.85,4.71,11.6,7.27,17.23"/></g><path id="BD-ETUDE" class="cls-14" d="m496.89,365.01c-.56-10.21-1.56-20.25-2.98-30.1"/><g id="BD-S-EU"><path id="BD-S-EU-2" class="cls-14" d="m465.94,365.01c-2.97-46.06-16.64-88.12-37.75-121.87"/><path class="cls-14" d="m450.06,214.35c17.23,26.7,30.46,57.99,38.51,92.26"/></g><path id="EXPO-BNF" class="cls-14" d="m488.12,273.66c9.5,28.26,15.47,59.03,17.16,91.35"/><path id="BNF" class="cls-14" d="m455.99,206.54c13.04,20.08,23.91,42.66,32.13,67.12"/><ellipse class="cls-17" cx="259.35" cy="540.52" rx="8.55" ry="5.25" transform="translate(-146.61 99.36) rotate(-16.99)"/><ellipse class="cls-17" cx="228.35" cy="510.52" rx="5.25" ry="8.55" transform="translate(-301.86 688.43) rotate(-84.45)"/><ellipse class="cls-17" cx="262.35" cy="505.52" rx="5.25" ry="8.55" transform="translate(-266.17 717.76) rotate(-84.45)"/><ellipse class="cls-17" cx="333.35" cy="541.52" rx="8.55" ry="5.25" transform="translate(-80.51 58.73) rotate(-8.99)"/><ellipse class="cls-17" cx="336.35" cy="506.52" rx="5.25" ry="8.55" transform="translate(-270.48 544.55) rotate(-60)"/><ellipse class="cls-17" cx="372.35" cy="514.52" rx="8.55" ry="5.25" transform="translate(-233.66 704.6) rotate(-71.52)"/><g id="MUSIQUE"><path class="cls-14" d="m232.11,689.28c6.91,2.54,13.94,4.68,21.08,6.41"/><path class="cls-14" d="m266.3,602.45c-28.46-6.91-54.42-23.16-75.96-46.25"/></g><path id="MDCTSJ" class="cls-13" d="m143.98,628.88c4.82,5.2,9.79,10.16,14.91,14.87"/><path id="OPERA" class="cls-11" d="m175.22,657.52c5.76,4.44,11.67,8.57,17.72,12.39"/></g></g><g id="splits"><g id="Calque_8"><line class="cls-15" x1="244.81" y1="12.65" x2="349.19" y2="755.35"/><line class="cls-15" x1="219.03" y1="17.19" x2="374.97" y2="750.81"/><line class="cls-15" x1="193.64" y1="23.53" x2="400.36" y2="744.47"/><line class="cls-15" x1="168.74" y1="31.62" x2="425.26" y2="736.38"/><line class="cls-15" x1="144.47" y1="41.42" x2="449.53" y2="726.58"/><line class="cls-15" x1="120.95" y1="52.89" x2="473.05" y2="715.11"/><line class="cls-15" x1="98.28" y1="65.98" x2="495.72" y2="702.02"/><line class="cls-15" x1="76.58" y1="80.62" x2="517.42" y2="687.38"/><line class="cls-15" x1="55.95" y1="96.73" x2="538.05" y2="671.27"/><line class="cls-15" x1="36.5" y1="114.25" x2="557.5" y2="653.75"/><line class="cls-15" x1="18.32" y1="133.08" x2="575.68" y2="634.92"/><line class="cls-15" x1="1.5" y1="153.13" x2="592.5" y2="614.87"/><line class="cls-15" x1="-13.89" y1="174.3" x2="607.89" y2="593.7"/><line class="cls-15" x1="-27.76" y1="196.5" x2="621.76" y2="571.5"/><line class="cls-15" x1="-40.05" y1="219.61" x2="634.05" y2="548.39"/><line class="cls-15" x1="-50.69" y1="243.52" x2="644.69" y2="524.48"/><line class="cls-15" x1="-59.65" y1="268.12" x2="653.65" y2="499.88"/><line class="cls-15" x1="-66.86" y1="293.28" x2="660.86" y2="474.72"/><line class="cls-15" x1="-72.3" y1="318.88" x2="666.3" y2="449.12"/><line class="cls-15" x1="-72.3" y1="449.12" x2="666.3" y2="318.88"/><line class="cls-15" x1="-66.86" y1="474.72" x2="660.86" y2="293.28"/><line class="cls-15" x1="-59.65" y1="499.88" x2="653.65" y2="268.12"/><line class="cls-15" x1="-50.69" y1="524.48" x2="644.69" y2="243.52"/><line class="cls-15" x1="-40.05" y1="548.39" x2="634.05" y2="219.61"/><line class="cls-15" x1="-27.76" y1="571.5" x2="621.76" y2="196.5"/><line class="cls-15" x1="-13.89" y1="593.7" x2="607.89" y2="174.3"/><line class="cls-15" x1="1.5" y1="614.87" x2="592.5" y2="153.13"/><line class="cls-15" x1="18.32" y1="634.92" x2="575.68" y2="133.08"/><line class="cls-15" x1="36.5" y1="653.75" x2="557.5" y2="114.25"/><line class="cls-15" x1="55.95" y1="671.27" x2="538.05" y2="96.73"/><line class="cls-15" x1="76.58" y1="687.38" x2="517.42" y2="80.62"/><line class="cls-15" x1="98.28" y1="702.02" x2="495.72" y2="65.98"/><line class="cls-15" x1="120.95" y1="715.11" x2="473.05" y2="52.89"/><line class="cls-15" x1="144.47" y1="726.58" x2="449.53" y2="41.42"/><line class="cls-15" x1="168.74" y1="736.38" x2="425.26" y2="31.62"/><line class="cls-15" x1="193.64" y1="744.47" x2="400.36" y2="23.53"/><line class="cls-15" x1="219.03" y1="750.81" x2="374.97" y2="17.19"/><line class="cls-15" x1="244.81" y1="755.35" x2="349.19" y2="12.65"/><line class="cls-15" x1="168.74" y1="31.62" x2="425.26" y2="736.38"/><line class="cls-1" x1="449.53" y1="726.58" x2="377.35" y2="564.48"/><line class="cls-15" x1="76.58" y1="80.62" x2="517.42" y2="687.38"/><line class="cls-15" x1="55.95" y1="96.73" x2="538.05" y2="671.27"/><line class="cls-1" x1="428.39" y1="502.3" x2="71.22" y2="180.7"/><line class="cls-1" x1="71.22" y1="180.7" x2="18.32" y2="133.08"/><line class="cls-1" x1="438.74" y1="479.6" x2="155.74" y2="288.72"/><g id="ARCHI-2"><path class="cls-1" d="m455.95,461.53c-6.58,23.2-16.01,44.57-27.76,63.35"/></g><line class="cls-1" x1="557.5" y1="653.75" x2="107.6" y2="187.87"/><line class="cls-1" x1="107.6" y1="187.87" x2="36.5" y2="114.25"/><path id="DESSIN-PRESSE" class="cls-5" d="m115.23,175.78c-2.62,3.94-5.16,7.98-7.63,12.09"/><path class="cls-1" d="m107.6,187.87c-26.16,43.55-43.8,96.31-49.64,153.98"/><path class="cls-7" d="m538.34,403.01c-.35,7.83-.93,15.58-1.71,23.25"/><line class="cls-1" x1="666.3" y1="449.12" x2="536.64" y2="426.25"/><line class="cls-1" x1="536.64" y1="426.25" x2="57.96" y2="341.85"/><line class="cls-1" x1="57.96" y1="341.85" x2="-72.3" y2="318.88"/><line class="cls-1" x1="297" y1="384" x2="493.91" y2="334.91"/><line class="cls-1" x1="660.86" y1="293.28" x2="493.91" y2="334.91"/><line class="cls-1" x1="297" y1="384" x2="-66.86" y2="474.72"/><line class="cls-1" x1="488.57" y1="306.6" x2="297" y2="384"/><line class="cls-1" x1="644.69" y1="243.52" x2="488.57" y2="306.6"/><line class="cls-1" x1="634.05" y1="219.61" x2="148.12" y2="456.61"/><line class="cls-1" x1="53.94" y1="547.95" x2="-13.89" y2="593.7"/><line class="cls-1" x1="428.38" y1="265.7" x2="18.32" y2="634.92"/><line class="cls-1" x1="575.68" y1="133.08" x2="428.38" y2="265.7"/><line class="cls-15" x1="36.5" y1="653.75" x2="557.5" y2="114.25"/><line class="cls-1" x1="592.5" y1="153.13" x2="433.92" y2="277.03"/><line class="cls-1" x1="433.92" y1="277.03" x2="160.53" y2="490.62"/><line class="cls-1" x1="57.95" y1="426.15" x2="-72.3" y2="449.12"/><line class="cls-1" x1="653.65" y1="268.12" x2="531.72" y2="307.74"/><line class="cls-1" x1="531.72" y1="307.74" x2="-59.65" y2="499.88"/><path class="cls-1" d="m531.72,307.74c2.09,11.12,3.74,22.47,4.91,34.01"/><path class="cls-1" d="m479.37,175.78c24.79,37.32,43.02,82.34,52.35,131.96"/><path class="cls-7" d="m536.63,341.75c.78,7.67,1.36,15.43,1.71,23.26"/><line class="cls-1" x1="536.63" y1="341.75" x2="57.95" y2="426.15"/><line class="cls-1" x1="666.3" y1="318.88" x2="536.63" y2="341.75"/><line class="cls-1" x1="66.45" y1="477.15" x2="297" y2="384"/><line class="cls-1" x1="66.45" y1="477.15" x2="-50.69" y2="524.48"/><line class="cls-1" x1="70.88" y1="494.29" x2="-40.05" y2="548.39"/><line class="cls-1" x1="70.88" y1="494.29" x2="148.12" y2="456.61"/><line class="cls-1" x1="155.73" y1="479.28" x2="82.43" y2="528.73"/><line class="cls-1" x1="53.94" y1="547.95" x2="82.43" y2="528.73"/><line class="cls-1" x1="89.7" y1="545.96" x2="160.53" y2="490.62"/><line class="cls-1" x1="89.7" y1="545.96" x2="1.5" y2="614.87"/><path class="cls-1" d="m57.95,426.15c1.77,17.49,4.65,34.53,8.5,51"/><path class="cls-1" d="m70.88,494.29c3.35,11.83,7.2,23.33,11.56,34.44"/><line class="cls-1" x1="216.8" y1="564.13" x2="175.22" y2="657.52"/><line class="cls-1" x1="175.22" y1="657.52" x2="144.47" y2="726.58"/><path class="cls-1" d="m278.3,700.02c-8.5-.87-16.87-2.33-25.1-4.33"/><line class="cls-1" x1="211.95" y1="680.6" x2="193.64" y2="744.47"/><line class="cls-1" x1="297" y1="384" x2="211.95" y2="680.6"/><line class="cls-1" x1="244.81" y1="755.35" x2="253.2" y2="695.69"/><line class="cls-1" x1="297" y1="384" x2="55.95" y2="671.27"/><line class="cls-1" x1="485.79" y1="124.16" x2="297" y2="384"/><line class="cls-1" x1="297" y1="384" x2="76.58" y2="687.38"/><line class="cls-1" x1="346.66" y1="30.65" x2="297" y2="384"/><line class="cls-1" x1="349.19" y1="12.65" x2="346.66" y2="30.65"/><line class="cls-1" x1="253.2" y1="695.69" x2="297" y2="384"/><line class="cls-1" x1="621.76" y1="196.5" x2="488.12" y2="273.66"/><line class="cls-1" x1="488.12" y1="273.66" x2="151.62" y2="467.94"/><line class="cls-1" x1="151.62" y1="467.94" x2="-27.76" y2="571.5"/><line class="cls-1" x1="653.65" y1="499.88" x2="132.97" y2="330.7"/><line class="cls-1" x1="145.22" y1="322.68" x2="105.99" y2="306.83"/><line class="cls-1" x1="97.98" y1="303.59" x2="105.99" y2="306.83"/><line class="cls-1" x1="97.98" y1="303.59" x2="-50.69" y2="243.52"/><line class="cls-1" x1="621.76" y1="571.5" x2="114.06" y2="278.38"/><line class="cls-1" x1="155.74" y1="288.72" x2="111.8" y2="259.08"/><line class="cls-1" x1="111.8" y1="259.08" x2="-13.89" y2="174.3"/><line class="cls-1" x1="106.39" y1="273.95" x2="114.06" y2="278.38"/><line class="cls-1" x1="106.39" y1="273.95" x2="-27.76" y2="196.5"/><line class="cls-1" x1="103" y1="320.97" x2="-59.65" y2="268.12"/><line class="cls-1" x1="103" y1="320.97" x2="132.97" y2="330.7"/><line class="cls-1" x1="660.86" y1="474.72" x2="131" y2="342.61"/><line class="cls-1" x1="131" y1="342.61" x2="-66.86" y2="293.28"/><line class="cls-1" x1="138.57" y1="306.73" x2="148.13" y2="311.39"/><line class="cls-1" x1="138.57" y1="306.73" x2="-40.05" y2="219.61"/><line class="cls-1" x1="297" y1="384" x2="243.23" y2="131.05"/><line class="cls-1" x1="297" y1="384" x2="374.97" y2="750.81"/><line class="cls-1" x1="297" y1="384" x2="297" y2="384"/><line class="cls-1" x1="244.81" y1="12.65" x2="247.33" y2="30.56"/><line class="cls-1" x1="644.69" y1="524.48" x2="558.23" y2="489.54"/><line class="cls-1" x1="634.05" y1="548.39" x2="523.66" y2="494.55"/><line class="cls-1" x1="523.66" y1="494.55" x2="148.13" y2="311.39"/><path class="cls-6" d="m528.1,477.37c-1.36,5.8-2.84,11.52-4.45,17.18"/><line class="cls-1" x1="558.23" y1="489.54" x2="528.1" y2="477.37"/><line class="cls-1" x1="528.1" y1="477.37" x2="145.22" y2="322.68"/><path class="cls-1" d="m512.03,529.04c-37.35,95.13-110.29,162.24-195.74,170.97"/><line class="cls-1" x1="438.74" y1="479.6" x2="512.03" y2="529.04"/><line class="cls-1" x1="540.05" y1="547.94" x2="512.03" y2="529.04"/><line class="cls-1" x1="607.89" y1="593.7" x2="540.05" y2="547.94"/><line class="cls-1" x1="470.25" y1="661.26" x2="495.72" y2="702.02"/><line class="cls-1" x1="470.25" y1="661.26" x2="98.28" y2="65.98"/><line class="cls-1" x1="346.57" y1="736.73" x2="349.19" y2="755.35"/><line class="cls-1" x1="346.57" y1="736.73" x2="247.33" y2="30.56"/><line class="cls-1" x1="193.64" y1="23.53" x2="200.53" y2="47.58"/><line class="cls-1" x1="400.36" y1="744.47" x2="200.53" y2="47.58"/><line class="cls-1" x1="120.95" y1="52.89" x2="140.29" y2="89.27"/><line class="cls-1" x1="140.29" y1="89.27" x2="182.57" y2="168.79"/><line class="cls-1" x1="182.57" y1="168.79" x2="297" y2="384"/><line class="cls-1" x1="297" y1="384" x2="297" y2="384"/><line class="cls-1" x1="196.1" y1="157.37" x2="297" y2="384"/><line class="cls-1" x1="144.47" y1="41.42" x2="196.1" y2="157.37"/><line class="cls-1" x1="297" y1="384" x2="449.53" y2="726.58"/><line class="cls-4" x1="297" y1="384" x2="297" y2="384"/><line class="cls-1" x1="297" y1="384" x2="411.63" y2="168.42"/><line class="cls-4" x1="297" y1="384" x2="297" y2="384"/><line class="cls-1" x1="297" y1="384" x2="120.95" y2="715.11"/><line class="cls-4" x1="297" y1="384" x2="297" y2="384"/><line class="cls-1" x1="297" y1="384" x2="168.74" y2="736.38"/><line class="cls-1" x1="383.33" y1="146.8" x2="297" y2="384"/><line class="cls-1" x1="383.33" y1="146.8" x2="414.98" y2="59.85"/><line class="cls-1" x1="414.98" y1="59.85" x2="425.26" y2="31.62"/><line class="cls-4" x1="297" y1="384" x2="297" y2="384"/><line class="cls-4" x1="297" y1="384" x2="297" y2="384"/><line class="cls-4" x1="297" y1="384" x2="297" y2="384"/><line class="cls-4" x1="297" y1="384" x2="297" y2="384"/><line class="cls-1" x1="297" y1="384" x2="219.03" y2="750.81"/><line class="cls-1" x1="350.81" y1="130.85" x2="297" y2="384"/><line class="cls-1" x1="374.97" y1="17.19" x2="350.81" y2="130.85"/><line class="cls-4" x1="297" y1="384" x2="297" y2="384"/><line class="cls-4" x1="297" y1="384" x2="297" y2="384"/><line class="cls-1" x1="400.36" y1="23.53" x2="367.54" y2="137.99"/><line class="cls-1" x1="367.54" y1="137.99" x2="297" y2="384"/><line class="cls-4" x1="297" y1="384" x2="297" y2="384"/><line class="cls-4" x1="297" y1="384" x2="297" y2="384"/><line class="cls-1" x1="297" y1="384" x2="144.47" y2="726.58"/><line class="cls-4" x1="297" y1="384" x2="297" y2="384"/><line class="cls-1" x1="297" y1="384" x2="398.05" y2="157.03"/><line class="cls-1" x1="61.72" y1="200.18" x2="1.5" y2="153.13"/><line class="cls-1" x1="219.03" y1="17.19" x2="223.41" y2="37.78"/><path id="LIVRE" class="cls-3" d="m278.3,111.48c-12.81,1.52-25.28,4.57-37.31,8.99"/><path id="LIVRES-J" class="cls-2" d="m240.99,120.47c-29.26,10.75-55.91,29.65-78.46,54.74"/><line class="cls-1" x1="240.99" y1="120.47" x2="243.23" y2="131.05"/><line class="cls-1" x1="223.41" y1="37.78" x2="240.99" y2="120.47"/><line class="cls-1" x1="485.78" y1="124.16" x2="76.58" y2="687.38"/><line class="cls-1" x1="453.59" y1="89.5" x2="120.95" y2="715.11"/><line class="cls-1" x1="370.57" y1="37.9" x2="219.03" y2="750.81"/><line class="cls-1" x1="374.97" y1="17.19" x2="370.57" y2="37.9"/><line class="cls-1" x1="297" y1="384" x2="435.07" y2="73.89"/><line class="cls-1" x1="297" y1="384" x2="144.47" y2="726.58"/><line class="cls-1" x1="297" y1="384" x2="244.81" y2="755.35"/><line class="cls-1" x1="346.66" y1="30.65" x2="297" y2="384"/><line class="cls-1" x1="349.19" y1="12.65" x2="346.66" y2="30.65"/><line class="cls-1" x1="499.5" y1="142.67" x2="55.95" y2="671.27"/><line class="cls-1" x1="538.05" y1="96.73" x2="499.5" y2="142.67"/><line class="cls-1" x1="557.5" y1="114.25" x2="511.72" y2="161.65"/><line class="cls-1" x1="511.72" y1="161.65" x2="36.5" y2="653.75"/><line class="cls-1" x1="607.89" y1="174.3" x2="540.25" y2="219.93"/><line class="cls-1" x1="540.25" y1="219.93" x2="155.73" y2="479.28"/><line class="cls-1" x1="538.05" y1="96.73" x2="499.5" y2="142.67"/><line class="cls-1" x1="495.72" y1="65.98" x2="470.49" y2="106.36"/><line class="cls-1" x1="470.49" y1="106.36" x2="98.28" y2="702.02"/><line class="cls-1" x1="575.68" y1="634.92" x2="522.3" y2="586.87"/><line class="cls-1" x1="428.39" y1="502.3" x2="522.3" y2="586.87"/><line class="cls-1" x1="453.36" y1="678.07" x2="297" y2="384"/><line class="cls-1" x1="453.36" y1="678.07" x2="473.05" y2="715.11"/><line class="cls-1" x1="517.42" y1="80.62" x2="485.78" y2="124.16"/><line class="cls-1" x1="485.78" y1="124.16" x2="297" y2="384"/><line class="cls-1" x1="297" y1="384" x2="76.58" y2="687.38"/><line class="cls-1" x1="297" y1="384" x2="499.51" y2="142.66"/><line class="cls-1" x1="538.05" y1="96.73" x2="499.51" y2="142.66"/><line class="cls-1" x1="297" y1="384" x2="55.95" y2="671.27"/><line class="cls-15" x1="244.81" y1="12.65" x2="349.19" y2="755.35"/><line class="cls-15" x1="219.03" y1="17.19" x2="374.97" y2="750.81"/><line class="cls-15" x1="193.64" y1="23.53" x2="400.36" y2="744.47"/><line class="cls-15" x1="168.74" y1="31.62" x2="425.26" y2="736.38"/><line class="cls-15" x1="144.47" y1="41.42" x2="449.53" y2="726.58"/><line class="cls-15" x1="120.95" y1="52.89" x2="473.05" y2="715.11"/><line class="cls-15" x1="98.28" y1="65.98" x2="495.72" y2="702.02"/><line class="cls-15" x1="76.58" y1="80.62" x2="517.42" y2="687.38"/><line class="cls-15" x1="55.95" y1="96.73" x2="538.05" y2="671.27"/><line class="cls-15" x1="36.5" y1="114.25" x2="557.5" y2="653.75"/><line class="cls-15" x1="18.32" y1="133.08" x2="575.68" y2="634.92"/><line class="cls-15" x1="1.5" y1="153.13" x2="592.5" y2="614.87"/><line class="cls-15" x1="-13.89" y1="174.3" x2="607.89" y2="593.7"/><line class="cls-15" x1="-27.76" y1="196.5" x2="621.76" y2="571.5"/><line class="cls-15" x1="-40.05" y1="219.61" x2="634.05" y2="548.39"/><line class="cls-15" x1="-50.69" y1="243.52" x2="644.69" y2="524.48"/><line class="cls-15" x1="-59.65" y1="268.12" x2="653.65" y2="499.88"/><line class="cls-15" x1="-66.86" y1="293.28" x2="660.86" y2="474.72"/><line class="cls-15" x1="-72.3" y1="318.88" x2="666.3" y2="449.12"/><line class="cls-15" x1="-72.3" y1="449.12" x2="666.3" y2="318.88"/><line class="cls-15" x1="-66.86" y1="474.72" x2="660.86" y2="293.28"/><line class="cls-15" x1="-59.65" y1="499.88" x2="653.65" y2="268.12"/><line class="cls-15" x1="-50.69" y1="524.48" x2="644.69" y2="243.52"/><line class="cls-15" x1="-40.05" y1="548.39" x2="634.05" y2="219.61"/><line class="cls-15" x1="-27.76" y1="571.5" x2="621.76" y2="196.5"/><line class="cls-15" x1="-13.89" y1="593.7" x2="607.89" y2="174.3"/><line class="cls-15" x1="1.5" y1="614.87" x2="592.5" y2="153.13"/><line class="cls-15" x1="18.32" y1="634.92" x2="575.68" y2="133.08"/><line class="cls-15" x1="76.58" y1="687.38" x2="517.42" y2="80.62"/><path class="cls-1" d="m158.89,643.74c5.29,4.87,10.74,9.47,16.33,13.78"/><line class="cls-1" x1="107.61" y1="580.12" x2="297" y2="384"/><line class="cls-1" x1="557.5" y1="114.25" x2="297" y2="384"/><line class="cls-1" x1="107.61" y1="580.12" x2="36.5" y2="653.75"/><line class="cls-1" x1="118.4" y1="596.85" x2="55.95" y2="671.27"/><line class="cls-1" x1="538.05" y1="96.73" x2="297" y2="384"/><line class="cls-1" x1="297" y1="384" x2="118.4" y2="596.85"/><path class="cls-1" d="m89.7,545.96c5.41,11.92,11.39,23.32,17.91,34.16"/><path class="cls-1" d="m118.4,596.85c7.92,11.47,16.47,22.18,25.59,32.03"/><path class="cls-12" d="m107.61,580.12c3.45,5.74,7.05,11.32,10.79,16.73"/><line class="cls-1" x1="495.72" y1="65.98" x2="297" y2="384"/><line class="cls-1" x1="143.98" y1="628.88" x2="98.28" y2="702.02"/><line class="cls-1" x1="143.98" y1="628.88" x2="297" y2="384"/><line class="cls-1" x1="158.89" y1="643.74" x2="120.95" y2="715.11"/><line class="cls-1" x1="158.89" y1="643.74" x2="297" y2="384"/><line class="cls-1" x1="473.05" y1="52.89" x2="297" y2="384"/><line class="cls-15" x1="144.47" y1="726.58" x2="449.53" y2="41.42"/><path class="cls-1" d="m192.94,669.9c6.2,3.91,12.54,7.48,19.01,10.69"/><line class="cls-1" x1="425.26" y1="31.62" x2="192.94" y2="669.9"/><line class="cls-1" x1="192.94" y1="669.9" x2="168.74" y2="736.38"/><line class="cls-15" x1="193.64" y1="744.47" x2="400.36" y2="23.53"/><path class="cls-1" d="m232.11,689.28c-6.85-2.51-13.57-5.41-20.16-8.68"/><line class="cls-1" x1="232.11" y1="689.28" x2="219.03" y2="750.81"/><line class="cls-1" x1="374.97" y1="17.19" x2="232.11" y2="689.28"/><line class="cls-1" x1="349.19" y1="12.65" x2="266.3" y2="602.45"/><line class="cls-1" x1="266.3" y1="602.45" x2="244.81" y2="755.35"/></g></g></svg>